G04 #@! TF.GenerationSoftware,KiCad,Pcbnew,(5.0.0-3-g5ebb6b6)*
G04 #@! TF.CreationDate,2018-08-23T00:05:31-04:00*
G04 #@! TF.ProjectId,Pyxel-Paradise,507978656C2D50617261646973652E6B,rev?*
G04 #@! TF.SameCoordinates,Original*
G04 #@! TF.FileFunction,Copper,L2,Bot,Signal*
G04 #@! TF.FilePolarity,Positive*
%FSLAX46Y46*%
G04 Gerber Fmt 4.6, Leading zero omitted, Abs format (unit mm)*
G04 Created by KiCad (PCBNEW (5.0.0-3-g5ebb6b6)) date Thursday, August 23, 2018 at 12:05:31 AM*
%MOMM*%
%LPD*%
G01*
G04 APERTURE LIST*
G04 #@! TA.AperFunction,ComponentPad*
%ADD10R,1.700000X2.000000*%
G04 #@! TD*
G04 #@! TA.AperFunction,ComponentPad*
%ADD11O,1.700000X2.000000*%
G04 #@! TD*
G04 #@! TA.AperFunction,ComponentPad*
%ADD12R,1.700000X1.700000*%
G04 #@! TD*
G04 #@! TA.AperFunction,ComponentPad*
%ADD13O,1.700000X1.700000*%
G04 #@! TD*
G04 APERTURE END LIST*
D10*
G04 #@! TO.P,J1,1*
G04 #@! TO.N,/North*
X168783000Y-110871000D03*
D11*
G04 #@! TO.P,J1,2*
G04 #@! TO.N,+3V3*
X171283000Y-110871000D03*
G04 #@! TD*
G04 #@! TO.P,J2,2*
G04 #@! TO.N,+3V3*
X138470000Y-71120000D03*
D10*
G04 #@! TO.P,J2,1*
G04 #@! TO.N,/NorthEast*
X140970000Y-71120000D03*
G04 #@! TD*
G04 #@! TO.P,J3,1*
G04 #@! TO.N,/East*
X140970000Y-81280000D03*
D11*
G04 #@! TO.P,J3,2*
G04 #@! TO.N,+3V3*
X138470000Y-81280000D03*
G04 #@! TD*
G04 #@! TO.P,J4,2*
G04 #@! TO.N,+3V3*
X171156000Y-80010000D03*
D10*
G04 #@! TO.P,J4,1*
G04 #@! TO.N,/SouthEast*
X168656000Y-80010000D03*
G04 #@! TD*
G04 #@! TO.P,J5,1*
G04 #@! TO.N,/South*
X179070000Y-80010000D03*
D11*
G04 #@! TO.P,J5,2*
G04 #@! TO.N,+3V3*
X181570000Y-80010000D03*
G04 #@! TD*
G04 #@! TO.P,J6,2*
G04 #@! TO.N,+3V3*
X181570000Y-90424000D03*
D10*
G04 #@! TO.P,J6,1*
G04 #@! TO.N,/SouthWest*
X179070000Y-90424000D03*
G04 #@! TD*
G04 #@! TO.P,J7,1*
G04 #@! TO.N,/West*
X151638000Y-112014000D03*
D11*
G04 #@! TO.P,J7,2*
G04 #@! TO.N,+3V3*
X149138000Y-112014000D03*
G04 #@! TD*
G04 #@! TO.P,J8,2*
G04 #@! TO.N,+3V3*
X149519000Y-81280000D03*
D10*
G04 #@! TO.P,J8,1*
G04 #@! TO.N,/NorthWest*
X152019000Y-81280000D03*
G04 #@! TD*
D12*
G04 #@! TO.P,J9,1*
G04 #@! TO.N,+3V3*
X159131000Y-66167000D03*
D13*
G04 #@! TO.P,J9,2*
G04 #@! TO.N,Net-(J9-Pad2)*
X161671000Y-66167000D03*
G04 #@! TO.P,J9,3*
G04 #@! TO.N,Net-(J9-Pad3)*
X159131000Y-68707000D03*
G04 #@! TO.P,J9,4*
G04 #@! TO.N,Net-(J9-Pad4)*
X161671000Y-68707000D03*
G04 #@! TO.P,J9,5*
G04 #@! TO.N,Net-(J9-Pad5)*
X159131000Y-71247000D03*
G04 #@! TO.P,J9,6*
G04 #@! TO.N,Net-(J9-Pad6)*
X161671000Y-71247000D03*
G04 #@! TO.P,J9,7*
G04 #@! TO.N,/Meta-Button-1*
X159131000Y-73787000D03*
G04 #@! TO.P,J9,8*
G04 #@! TO.N,Net-(J9-Pad8)*
X161671000Y-73787000D03*
G04 #@! TO.P,J9,9*
G04 #@! TO.N,Net-(J9-Pad9)*
X159131000Y-76327000D03*
G04 #@! TO.P,J9,10*
G04 #@! TO.N,Net-(J9-Pad10)*
X161671000Y-76327000D03*
G04 #@! TO.P,J9,11*
G04 #@! TO.N,/NorthEast*
X159131000Y-78867000D03*
G04 #@! TO.P,J9,12*
G04 #@! TO.N,Net-(J9-Pad12)*
X161671000Y-78867000D03*
G04 #@! TO.P,J9,13*
G04 #@! TO.N,/NorthWest*
X159131000Y-81407000D03*
G04 #@! TO.P,J9,14*
G04 #@! TO.N,Net-(J9-Pad14)*
X161671000Y-81407000D03*
G04 #@! TO.P,J9,15*
G04 #@! TO.N,/East*
X159131000Y-83947000D03*
G04 #@! TO.P,J9,16*
G04 #@! TO.N,/SouthEast*
X161671000Y-83947000D03*
G04 #@! TO.P,J9,17*
G04 #@! TO.N,Net-(J9-Pad17)*
X159131000Y-86487000D03*
G04 #@! TO.P,J9,18*
G04 #@! TO.N,/South*
X161671000Y-86487000D03*
G04 #@! TO.P,J9,19*
G04 #@! TO.N,/Action-Button-Down*
X159131000Y-89027000D03*
G04 #@! TO.P,J9,20*
G04 #@! TO.N,Net-(J9-Pad20)*
X161671000Y-89027000D03*
G04 #@! TO.P,J9,21*
G04 #@! TO.N,/Action-Button-Right*
X159131000Y-91567000D03*
G04 #@! TO.P,J9,22*
G04 #@! TO.N,/SouthWest*
X161671000Y-91567000D03*
G04 #@! TO.P,J9,23*
G04 #@! TO.N,/Action-Button-Left*
X159131000Y-94107000D03*
G04 #@! TO.P,J9,24*
G04 #@! TO.N,/Action-Button-Up*
X161671000Y-94107000D03*
G04 #@! TO.P,J9,25*
G04 #@! TO.N,Net-(J9-Pad25)*
X159131000Y-96647000D03*
G04 #@! TO.P,J9,26*
G04 #@! TO.N,/Meta-Button-4*
X161671000Y-96647000D03*
G04 #@! TO.P,J9,27*
G04 #@! TO.N,Net-(J9-Pad27)*
X159131000Y-99187000D03*
G04 #@! TO.P,J9,28*
G04 #@! TO.N,Net-(J9-Pad28)*
X161671000Y-99187000D03*
G04 #@! TO.P,J9,29*
G04 #@! TO.N,/Meta-Button-2*
X159131000Y-101727000D03*
G04 #@! TO.P,J9,30*
G04 #@! TO.N,Net-(J9-Pad30)*
X161671000Y-101727000D03*
G04 #@! TO.P,J9,31*
G04 #@! TO.N,/Meta-Button-3*
X159131000Y-104267000D03*
G04 #@! TO.P,J9,32*
G04 #@! TO.N,Net-(J9-Pad32)*
X161671000Y-104267000D03*
G04 #@! TO.P,J9,33*
G04 #@! TO.N,Net-(J9-Pad33)*
X159131000Y-106807000D03*
G04 #@! TO.P,J9,34*
G04 #@! TO.N,Net-(J9-Pad34)*
X161671000Y-106807000D03*
G04 #@! TO.P,J9,35*
G04 #@! TO.N,Net-(J9-Pad35)*
X159131000Y-109347000D03*
G04 #@! TO.P,J9,36*
G04 #@! TO.N,/North*
X161671000Y-109347000D03*
G04 #@! TO.P,J9,37*
G04 #@! TO.N,/West*
X159131000Y-111887000D03*
G04 #@! TO.P,J9,38*
G04 #@! TO.N,Net-(J9-Pad38)*
X161671000Y-111887000D03*
G04 #@! TO.P,J9,39*
G04 #@! TO.N,Net-(J9-Pad39)*
X159131000Y-114427000D03*
G04 #@! TO.P,J9,40*
G04 #@! TO.N,Net-(J9-Pad40)*
X161671000Y-114427000D03*
G04 #@! TD*
D10*
G04 #@! TO.P,J10,1*
G04 #@! TO.N,+3V3*
X171196000Y-91440000D03*
D11*
G04 #@! TO.P,J10,2*
G04 #@! TO.N,/Action-Button-Up*
X168696000Y-91440000D03*
G04 #@! TD*
G04 #@! TO.P,J11,2*
G04 #@! TO.N,/Action-Button-Right*
X151598000Y-90424000D03*
D10*
G04 #@! TO.P,J11,1*
G04 #@! TO.N,+3V3*
X149098000Y-90424000D03*
G04 #@! TD*
G04 #@! TO.P,J12,1*
G04 #@! TO.N,+3V3*
X138430000Y-90424000D03*
D11*
G04 #@! TO.P,J12,2*
G04 #@! TO.N,/Action-Button-Down*
X140930000Y-90424000D03*
G04 #@! TD*
G04 #@! TO.P,J13,2*
G04 #@! TO.N,/Action-Button-Left*
X141057000Y-100838000D03*
D10*
G04 #@! TO.P,J13,1*
G04 #@! TO.N,+3V3*
X138557000Y-100838000D03*
G04 #@! TD*
G04 #@! TO.P,J14,1*
G04 #@! TO.N,+3V3*
X152019000Y-71120000D03*
D11*
G04 #@! TO.P,J14,2*
G04 #@! TO.N,/Meta-Button-1*
X149519000Y-71120000D03*
G04 #@! TD*
G04 #@! TO.P,J15,2*
G04 #@! TO.N,/Meta-Button-2*
X151598000Y-100838000D03*
D10*
G04 #@! TO.P,J15,1*
G04 #@! TO.N,+3V3*
X149098000Y-100838000D03*
G04 #@! TD*
G04 #@! TO.P,J16,1*
G04 #@! TO.N,+3V3*
X138557000Y-110998000D03*
D11*
G04 #@! TO.P,J16,2*
G04 #@! TO.N,/Meta-Button-3*
X141057000Y-110998000D03*
G04 #@! TD*
G04 #@! TO.P,J17,2*
G04 #@! TO.N,/Meta-Button-4*
X168696000Y-101854000D03*
D10*
G04 #@! TO.P,J17,1*
G04 #@! TO.N,+3V3*
X171196000Y-101854000D03*
G04 #@! TD*
M02*
