G04 #@! TF.GenerationSoftware,KiCad,Pcbnew,(5.1.2-1)-1*
G04 #@! TF.CreationDate,2019-08-04T20:02:10-04:00*
G04 #@! TF.ProjectId,Pyxel-Paradise,50797865-6c2d-4506-9172-61646973652e,rev?*
G04 #@! TF.SameCoordinates,Original*
G04 #@! TF.FileFunction,Copper,L1,Top*
G04 #@! TF.FilePolarity,Positive*
%FSLAX46Y46*%
G04 Gerber Fmt 4.6, Leading zero omitted, Abs format (unit mm)*
G04 Created by KiCad (PCBNEW (5.1.2-1)-1) date 2019-08-04 20:02:10*
%MOMM*%
%LPD*%
G04 APERTURE LIST*
%ADD10C,0.100000*%
%ADD11C,1.700000*%
%ADD12O,1.950000X1.700000*%
%ADD13O,1.700000X2.000000*%
%ADD14O,1.600000X1.600000*%
%ADD15C,1.600000*%
%ADD16O,1.727200X1.727200*%
%ADD17R,1.727200X1.727200*%
%ADD18C,1.000000*%
G04 APERTURE END LIST*
D10*
G36*
X77584504Y-105831204D02*
G01*
X77608773Y-105834804D01*
X77632571Y-105840765D01*
X77655671Y-105849030D01*
X77677849Y-105859520D01*
X77698893Y-105872133D01*
X77718598Y-105886747D01*
X77736777Y-105903223D01*
X77753253Y-105921402D01*
X77767867Y-105941107D01*
X77780480Y-105962151D01*
X77790970Y-105984329D01*
X77799235Y-106007429D01*
X77805196Y-106031227D01*
X77808796Y-106055496D01*
X77810000Y-106080000D01*
X77810000Y-107280000D01*
X77808796Y-107304504D01*
X77805196Y-107328773D01*
X77799235Y-107352571D01*
X77790970Y-107375671D01*
X77780480Y-107397849D01*
X77767867Y-107418893D01*
X77753253Y-107438598D01*
X77736777Y-107456777D01*
X77718598Y-107473253D01*
X77698893Y-107487867D01*
X77677849Y-107500480D01*
X77655671Y-107510970D01*
X77632571Y-107519235D01*
X77608773Y-107525196D01*
X77584504Y-107528796D01*
X77560000Y-107530000D01*
X76110000Y-107530000D01*
X76085496Y-107528796D01*
X76061227Y-107525196D01*
X76037429Y-107519235D01*
X76014329Y-107510970D01*
X75992151Y-107500480D01*
X75971107Y-107487867D01*
X75951402Y-107473253D01*
X75933223Y-107456777D01*
X75916747Y-107438598D01*
X75902133Y-107418893D01*
X75889520Y-107397849D01*
X75879030Y-107375671D01*
X75870765Y-107352571D01*
X75864804Y-107328773D01*
X75861204Y-107304504D01*
X75860000Y-107280000D01*
X75860000Y-106080000D01*
X75861204Y-106055496D01*
X75864804Y-106031227D01*
X75870765Y-106007429D01*
X75879030Y-105984329D01*
X75889520Y-105962151D01*
X75902133Y-105941107D01*
X75916747Y-105921402D01*
X75933223Y-105903223D01*
X75951402Y-105886747D01*
X75971107Y-105872133D01*
X75992151Y-105859520D01*
X76014329Y-105849030D01*
X76037429Y-105840765D01*
X76061227Y-105834804D01*
X76085496Y-105831204D01*
X76110000Y-105830000D01*
X77560000Y-105830000D01*
X77584504Y-105831204D01*
X77584504Y-105831204D01*
G37*
D11*
X76835000Y-106680000D03*
D12*
X76835000Y-109180000D03*
X76835000Y-111680000D03*
X76835000Y-114180000D03*
X76835000Y-116680000D03*
D10*
G36*
X66664504Y-124096204D02*
G01*
X66688773Y-124099804D01*
X66712571Y-124105765D01*
X66735671Y-124114030D01*
X66757849Y-124124520D01*
X66778893Y-124137133D01*
X66798598Y-124151747D01*
X66816777Y-124168223D01*
X66833253Y-124186402D01*
X66847867Y-124206107D01*
X66860480Y-124227151D01*
X66870970Y-124249329D01*
X66879235Y-124272429D01*
X66885196Y-124296227D01*
X66888796Y-124320496D01*
X66890000Y-124345000D01*
X66890000Y-125845000D01*
X66888796Y-125869504D01*
X66885196Y-125893773D01*
X66879235Y-125917571D01*
X66870970Y-125940671D01*
X66860480Y-125962849D01*
X66847867Y-125983893D01*
X66833253Y-126003598D01*
X66816777Y-126021777D01*
X66798598Y-126038253D01*
X66778893Y-126052867D01*
X66757849Y-126065480D01*
X66735671Y-126075970D01*
X66712571Y-126084235D01*
X66688773Y-126090196D01*
X66664504Y-126093796D01*
X66640000Y-126095000D01*
X65440000Y-126095000D01*
X65415496Y-126093796D01*
X65391227Y-126090196D01*
X65367429Y-126084235D01*
X65344329Y-126075970D01*
X65322151Y-126065480D01*
X65301107Y-126052867D01*
X65281402Y-126038253D01*
X65263223Y-126021777D01*
X65246747Y-126003598D01*
X65232133Y-125983893D01*
X65219520Y-125962849D01*
X65209030Y-125940671D01*
X65200765Y-125917571D01*
X65194804Y-125893773D01*
X65191204Y-125869504D01*
X65190000Y-125845000D01*
X65190000Y-124345000D01*
X65191204Y-124320496D01*
X65194804Y-124296227D01*
X65200765Y-124272429D01*
X65209030Y-124249329D01*
X65219520Y-124227151D01*
X65232133Y-124206107D01*
X65246747Y-124186402D01*
X65263223Y-124168223D01*
X65281402Y-124151747D01*
X65301107Y-124137133D01*
X65322151Y-124124520D01*
X65344329Y-124114030D01*
X65367429Y-124105765D01*
X65391227Y-124099804D01*
X65415496Y-124096204D01*
X65440000Y-124095000D01*
X66640000Y-124095000D01*
X66664504Y-124096204D01*
X66664504Y-124096204D01*
G37*
D11*
X66040000Y-125095000D03*
D13*
X68540000Y-125095000D03*
X78700000Y-132715000D03*
D10*
G36*
X76824504Y-131716204D02*
G01*
X76848773Y-131719804D01*
X76872571Y-131725765D01*
X76895671Y-131734030D01*
X76917849Y-131744520D01*
X76938893Y-131757133D01*
X76958598Y-131771747D01*
X76976777Y-131788223D01*
X76993253Y-131806402D01*
X77007867Y-131826107D01*
X77020480Y-131847151D01*
X77030970Y-131869329D01*
X77039235Y-131892429D01*
X77045196Y-131916227D01*
X77048796Y-131940496D01*
X77050000Y-131965000D01*
X77050000Y-133465000D01*
X77048796Y-133489504D01*
X77045196Y-133513773D01*
X77039235Y-133537571D01*
X77030970Y-133560671D01*
X77020480Y-133582849D01*
X77007867Y-133603893D01*
X76993253Y-133623598D01*
X76976777Y-133641777D01*
X76958598Y-133658253D01*
X76938893Y-133672867D01*
X76917849Y-133685480D01*
X76895671Y-133695970D01*
X76872571Y-133704235D01*
X76848773Y-133710196D01*
X76824504Y-133713796D01*
X76800000Y-133715000D01*
X75600000Y-133715000D01*
X75575496Y-133713796D01*
X75551227Y-133710196D01*
X75527429Y-133704235D01*
X75504329Y-133695970D01*
X75482151Y-133685480D01*
X75461107Y-133672867D01*
X75441402Y-133658253D01*
X75423223Y-133641777D01*
X75406747Y-133623598D01*
X75392133Y-133603893D01*
X75379520Y-133582849D01*
X75369030Y-133560671D01*
X75360765Y-133537571D01*
X75354804Y-133513773D01*
X75351204Y-133489504D01*
X75350000Y-133465000D01*
X75350000Y-131965000D01*
X75351204Y-131940496D01*
X75354804Y-131916227D01*
X75360765Y-131892429D01*
X75369030Y-131869329D01*
X75379520Y-131847151D01*
X75392133Y-131826107D01*
X75406747Y-131806402D01*
X75423223Y-131788223D01*
X75441402Y-131771747D01*
X75461107Y-131757133D01*
X75482151Y-131744520D01*
X75504329Y-131734030D01*
X75527429Y-131725765D01*
X75551227Y-131719804D01*
X75575496Y-131716204D01*
X75600000Y-131715000D01*
X76800000Y-131715000D01*
X76824504Y-131716204D01*
X76824504Y-131716204D01*
G37*
D11*
X76200000Y-132715000D03*
D10*
G36*
X66664504Y-138701204D02*
G01*
X66688773Y-138704804D01*
X66712571Y-138710765D01*
X66735671Y-138719030D01*
X66757849Y-138729520D01*
X66778893Y-138742133D01*
X66798598Y-138756747D01*
X66816777Y-138773223D01*
X66833253Y-138791402D01*
X66847867Y-138811107D01*
X66860480Y-138832151D01*
X66870970Y-138854329D01*
X66879235Y-138877429D01*
X66885196Y-138901227D01*
X66888796Y-138925496D01*
X66890000Y-138950000D01*
X66890000Y-140450000D01*
X66888796Y-140474504D01*
X66885196Y-140498773D01*
X66879235Y-140522571D01*
X66870970Y-140545671D01*
X66860480Y-140567849D01*
X66847867Y-140588893D01*
X66833253Y-140608598D01*
X66816777Y-140626777D01*
X66798598Y-140643253D01*
X66778893Y-140657867D01*
X66757849Y-140670480D01*
X66735671Y-140680970D01*
X66712571Y-140689235D01*
X66688773Y-140695196D01*
X66664504Y-140698796D01*
X66640000Y-140700000D01*
X65440000Y-140700000D01*
X65415496Y-140698796D01*
X65391227Y-140695196D01*
X65367429Y-140689235D01*
X65344329Y-140680970D01*
X65322151Y-140670480D01*
X65301107Y-140657867D01*
X65281402Y-140643253D01*
X65263223Y-140626777D01*
X65246747Y-140608598D01*
X65232133Y-140588893D01*
X65219520Y-140567849D01*
X65209030Y-140545671D01*
X65200765Y-140522571D01*
X65194804Y-140498773D01*
X65191204Y-140474504D01*
X65190000Y-140450000D01*
X65190000Y-138950000D01*
X65191204Y-138925496D01*
X65194804Y-138901227D01*
X65200765Y-138877429D01*
X65209030Y-138854329D01*
X65219520Y-138832151D01*
X65232133Y-138811107D01*
X65246747Y-138791402D01*
X65263223Y-138773223D01*
X65281402Y-138756747D01*
X65301107Y-138742133D01*
X65322151Y-138729520D01*
X65344329Y-138719030D01*
X65367429Y-138710765D01*
X65391227Y-138704804D01*
X65415496Y-138701204D01*
X65440000Y-138700000D01*
X66640000Y-138700000D01*
X66664504Y-138701204D01*
X66664504Y-138701204D01*
G37*
D11*
X66040000Y-139700000D03*
D13*
X68540000Y-139700000D03*
X58380000Y-132715000D03*
D10*
G36*
X56504504Y-131716204D02*
G01*
X56528773Y-131719804D01*
X56552571Y-131725765D01*
X56575671Y-131734030D01*
X56597849Y-131744520D01*
X56618893Y-131757133D01*
X56638598Y-131771747D01*
X56656777Y-131788223D01*
X56673253Y-131806402D01*
X56687867Y-131826107D01*
X56700480Y-131847151D01*
X56710970Y-131869329D01*
X56719235Y-131892429D01*
X56725196Y-131916227D01*
X56728796Y-131940496D01*
X56730000Y-131965000D01*
X56730000Y-133465000D01*
X56728796Y-133489504D01*
X56725196Y-133513773D01*
X56719235Y-133537571D01*
X56710970Y-133560671D01*
X56700480Y-133582849D01*
X56687867Y-133603893D01*
X56673253Y-133623598D01*
X56656777Y-133641777D01*
X56638598Y-133658253D01*
X56618893Y-133672867D01*
X56597849Y-133685480D01*
X56575671Y-133695970D01*
X56552571Y-133704235D01*
X56528773Y-133710196D01*
X56504504Y-133713796D01*
X56480000Y-133715000D01*
X55280000Y-133715000D01*
X55255496Y-133713796D01*
X55231227Y-133710196D01*
X55207429Y-133704235D01*
X55184329Y-133695970D01*
X55162151Y-133685480D01*
X55141107Y-133672867D01*
X55121402Y-133658253D01*
X55103223Y-133641777D01*
X55086747Y-133623598D01*
X55072133Y-133603893D01*
X55059520Y-133582849D01*
X55049030Y-133560671D01*
X55040765Y-133537571D01*
X55034804Y-133513773D01*
X55031204Y-133489504D01*
X55030000Y-133465000D01*
X55030000Y-131965000D01*
X55031204Y-131940496D01*
X55034804Y-131916227D01*
X55040765Y-131892429D01*
X55049030Y-131869329D01*
X55059520Y-131847151D01*
X55072133Y-131826107D01*
X55086747Y-131806402D01*
X55103223Y-131788223D01*
X55121402Y-131771747D01*
X55141107Y-131757133D01*
X55162151Y-131744520D01*
X55184329Y-131734030D01*
X55207429Y-131725765D01*
X55231227Y-131719804D01*
X55255496Y-131716204D01*
X55280000Y-131715000D01*
X56480000Y-131715000D01*
X56504504Y-131716204D01*
X56504504Y-131716204D01*
G37*
D11*
X55880000Y-132715000D03*
D10*
G36*
X117464504Y-105681204D02*
G01*
X117488773Y-105684804D01*
X117512571Y-105690765D01*
X117535671Y-105699030D01*
X117557849Y-105709520D01*
X117578893Y-105722133D01*
X117598598Y-105736747D01*
X117616777Y-105753223D01*
X117633253Y-105771402D01*
X117647867Y-105791107D01*
X117660480Y-105812151D01*
X117670970Y-105834329D01*
X117679235Y-105857429D01*
X117685196Y-105881227D01*
X117688796Y-105905496D01*
X117690000Y-105930000D01*
X117690000Y-107430000D01*
X117688796Y-107454504D01*
X117685196Y-107478773D01*
X117679235Y-107502571D01*
X117670970Y-107525671D01*
X117660480Y-107547849D01*
X117647867Y-107568893D01*
X117633253Y-107588598D01*
X117616777Y-107606777D01*
X117598598Y-107623253D01*
X117578893Y-107637867D01*
X117557849Y-107650480D01*
X117535671Y-107660970D01*
X117512571Y-107669235D01*
X117488773Y-107675196D01*
X117464504Y-107678796D01*
X117440000Y-107680000D01*
X116240000Y-107680000D01*
X116215496Y-107678796D01*
X116191227Y-107675196D01*
X116167429Y-107669235D01*
X116144329Y-107660970D01*
X116122151Y-107650480D01*
X116101107Y-107637867D01*
X116081402Y-107623253D01*
X116063223Y-107606777D01*
X116046747Y-107588598D01*
X116032133Y-107568893D01*
X116019520Y-107547849D01*
X116009030Y-107525671D01*
X116000765Y-107502571D01*
X115994804Y-107478773D01*
X115991204Y-107454504D01*
X115990000Y-107430000D01*
X115990000Y-105930000D01*
X115991204Y-105905496D01*
X115994804Y-105881227D01*
X116000765Y-105857429D01*
X116009030Y-105834329D01*
X116019520Y-105812151D01*
X116032133Y-105791107D01*
X116046747Y-105771402D01*
X116063223Y-105753223D01*
X116081402Y-105736747D01*
X116101107Y-105722133D01*
X116122151Y-105709520D01*
X116144329Y-105699030D01*
X116167429Y-105690765D01*
X116191227Y-105684804D01*
X116215496Y-105681204D01*
X116240000Y-105680000D01*
X117440000Y-105680000D01*
X117464504Y-105681204D01*
X117464504Y-105681204D01*
G37*
D11*
X116840000Y-106680000D03*
D13*
X119340000Y-106680000D03*
X119340000Y-116840000D03*
D10*
G36*
X117464504Y-115841204D02*
G01*
X117488773Y-115844804D01*
X117512571Y-115850765D01*
X117535671Y-115859030D01*
X117557849Y-115869520D01*
X117578893Y-115882133D01*
X117598598Y-115896747D01*
X117616777Y-115913223D01*
X117633253Y-115931402D01*
X117647867Y-115951107D01*
X117660480Y-115972151D01*
X117670970Y-115994329D01*
X117679235Y-116017429D01*
X117685196Y-116041227D01*
X117688796Y-116065496D01*
X117690000Y-116090000D01*
X117690000Y-117590000D01*
X117688796Y-117614504D01*
X117685196Y-117638773D01*
X117679235Y-117662571D01*
X117670970Y-117685671D01*
X117660480Y-117707849D01*
X117647867Y-117728893D01*
X117633253Y-117748598D01*
X117616777Y-117766777D01*
X117598598Y-117783253D01*
X117578893Y-117797867D01*
X117557849Y-117810480D01*
X117535671Y-117820970D01*
X117512571Y-117829235D01*
X117488773Y-117835196D01*
X117464504Y-117838796D01*
X117440000Y-117840000D01*
X116240000Y-117840000D01*
X116215496Y-117838796D01*
X116191227Y-117835196D01*
X116167429Y-117829235D01*
X116144329Y-117820970D01*
X116122151Y-117810480D01*
X116101107Y-117797867D01*
X116081402Y-117783253D01*
X116063223Y-117766777D01*
X116046747Y-117748598D01*
X116032133Y-117728893D01*
X116019520Y-117707849D01*
X116009030Y-117685671D01*
X116000765Y-117662571D01*
X115994804Y-117638773D01*
X115991204Y-117614504D01*
X115990000Y-117590000D01*
X115990000Y-116090000D01*
X115991204Y-116065496D01*
X115994804Y-116041227D01*
X116000765Y-116017429D01*
X116009030Y-115994329D01*
X116019520Y-115972151D01*
X116032133Y-115951107D01*
X116046747Y-115931402D01*
X116063223Y-115913223D01*
X116081402Y-115896747D01*
X116101107Y-115882133D01*
X116122151Y-115869520D01*
X116144329Y-115859030D01*
X116167429Y-115850765D01*
X116191227Y-115844804D01*
X116215496Y-115841204D01*
X116240000Y-115840000D01*
X117440000Y-115840000D01*
X117464504Y-115841204D01*
X117464504Y-115841204D01*
G37*
D11*
X116840000Y-116840000D03*
D10*
G36*
X117504504Y-126001204D02*
G01*
X117528773Y-126004804D01*
X117552571Y-126010765D01*
X117575671Y-126019030D01*
X117597849Y-126029520D01*
X117618893Y-126042133D01*
X117638598Y-126056747D01*
X117656777Y-126073223D01*
X117673253Y-126091402D01*
X117687867Y-126111107D01*
X117700480Y-126132151D01*
X117710970Y-126154329D01*
X117719235Y-126177429D01*
X117725196Y-126201227D01*
X117728796Y-126225496D01*
X117730000Y-126250000D01*
X117730000Y-127750000D01*
X117728796Y-127774504D01*
X117725196Y-127798773D01*
X117719235Y-127822571D01*
X117710970Y-127845671D01*
X117700480Y-127867849D01*
X117687867Y-127888893D01*
X117673253Y-127908598D01*
X117656777Y-127926777D01*
X117638598Y-127943253D01*
X117618893Y-127957867D01*
X117597849Y-127970480D01*
X117575671Y-127980970D01*
X117552571Y-127989235D01*
X117528773Y-127995196D01*
X117504504Y-127998796D01*
X117480000Y-128000000D01*
X116280000Y-128000000D01*
X116255496Y-127998796D01*
X116231227Y-127995196D01*
X116207429Y-127989235D01*
X116184329Y-127980970D01*
X116162151Y-127970480D01*
X116141107Y-127957867D01*
X116121402Y-127943253D01*
X116103223Y-127926777D01*
X116086747Y-127908598D01*
X116072133Y-127888893D01*
X116059520Y-127867849D01*
X116049030Y-127845671D01*
X116040765Y-127822571D01*
X116034804Y-127798773D01*
X116031204Y-127774504D01*
X116030000Y-127750000D01*
X116030000Y-126250000D01*
X116031204Y-126225496D01*
X116034804Y-126201227D01*
X116040765Y-126177429D01*
X116049030Y-126154329D01*
X116059520Y-126132151D01*
X116072133Y-126111107D01*
X116086747Y-126091402D01*
X116103223Y-126073223D01*
X116121402Y-126056747D01*
X116141107Y-126042133D01*
X116162151Y-126029520D01*
X116184329Y-126019030D01*
X116207429Y-126010765D01*
X116231227Y-126004804D01*
X116255496Y-126001204D01*
X116280000Y-126000000D01*
X117480000Y-126000000D01*
X117504504Y-126001204D01*
X117504504Y-126001204D01*
G37*
D11*
X116880000Y-127000000D03*
D13*
X119380000Y-127000000D03*
X119340000Y-137160000D03*
D10*
G36*
X117464504Y-136161204D02*
G01*
X117488773Y-136164804D01*
X117512571Y-136170765D01*
X117535671Y-136179030D01*
X117557849Y-136189520D01*
X117578893Y-136202133D01*
X117598598Y-136216747D01*
X117616777Y-136233223D01*
X117633253Y-136251402D01*
X117647867Y-136271107D01*
X117660480Y-136292151D01*
X117670970Y-136314329D01*
X117679235Y-136337429D01*
X117685196Y-136361227D01*
X117688796Y-136385496D01*
X117690000Y-136410000D01*
X117690000Y-137910000D01*
X117688796Y-137934504D01*
X117685196Y-137958773D01*
X117679235Y-137982571D01*
X117670970Y-138005671D01*
X117660480Y-138027849D01*
X117647867Y-138048893D01*
X117633253Y-138068598D01*
X117616777Y-138086777D01*
X117598598Y-138103253D01*
X117578893Y-138117867D01*
X117557849Y-138130480D01*
X117535671Y-138140970D01*
X117512571Y-138149235D01*
X117488773Y-138155196D01*
X117464504Y-138158796D01*
X117440000Y-138160000D01*
X116240000Y-138160000D01*
X116215496Y-138158796D01*
X116191227Y-138155196D01*
X116167429Y-138149235D01*
X116144329Y-138140970D01*
X116122151Y-138130480D01*
X116101107Y-138117867D01*
X116081402Y-138103253D01*
X116063223Y-138086777D01*
X116046747Y-138068598D01*
X116032133Y-138048893D01*
X116019520Y-138027849D01*
X116009030Y-138005671D01*
X116000765Y-137982571D01*
X115994804Y-137958773D01*
X115991204Y-137934504D01*
X115990000Y-137910000D01*
X115990000Y-136410000D01*
X115991204Y-136385496D01*
X115994804Y-136361227D01*
X116000765Y-136337429D01*
X116009030Y-136314329D01*
X116019520Y-136292151D01*
X116032133Y-136271107D01*
X116046747Y-136251402D01*
X116063223Y-136233223D01*
X116081402Y-136216747D01*
X116101107Y-136202133D01*
X116122151Y-136189520D01*
X116144329Y-136179030D01*
X116167429Y-136170765D01*
X116191227Y-136164804D01*
X116215496Y-136161204D01*
X116240000Y-136160000D01*
X117440000Y-136160000D01*
X117464504Y-136161204D01*
X117464504Y-136161204D01*
G37*
D11*
X116840000Y-137160000D03*
D14*
X55880000Y-125095000D03*
D15*
X58420000Y-125095000D03*
X58420000Y-141605000D03*
D14*
X55880000Y-141605000D03*
D15*
X110490000Y-106680000D03*
D14*
X107950000Y-106680000D03*
X107950000Y-117475000D03*
D15*
X110490000Y-117475000D03*
X110490000Y-127635000D03*
D14*
X107950000Y-127635000D03*
X107950000Y-137795000D03*
D15*
X110490000Y-137795000D03*
X76200000Y-125095000D03*
D14*
X78740000Y-125095000D03*
X76200000Y-141605000D03*
D15*
X78740000Y-141605000D03*
X56515000Y-115570000D03*
D14*
X59055000Y-115570000D03*
X68580000Y-115570000D03*
D15*
X66040000Y-115570000D03*
X56515000Y-107315000D03*
D14*
X59055000Y-107315000D03*
X68580000Y-107315000D03*
D15*
X66040000Y-107315000D03*
D16*
X101236000Y-123969000D03*
X85996000Y-116349000D03*
X101236000Y-108729000D03*
X101236000Y-126509000D03*
X101236000Y-129049000D03*
X101236000Y-131589000D03*
X101236000Y-121429000D03*
X85996000Y-131589000D03*
X85996000Y-129049000D03*
X85996000Y-126509000D03*
X85996000Y-123969000D03*
X85996000Y-121429000D03*
X85996000Y-111269000D03*
X85996000Y-113809000D03*
X85996000Y-108729000D03*
X101236000Y-116349000D03*
X101236000Y-118889000D03*
X101236000Y-113809000D03*
X85996000Y-118889000D03*
X101236000Y-111269000D03*
X101236000Y-106189000D03*
D17*
X85996000Y-106189000D03*
D16*
X85996000Y-134112000D03*
X101236000Y-134129000D03*
D18*
X85996000Y-113809000D02*
X83329000Y-113809000D01*
X83329000Y-113809000D02*
X81280000Y-115858000D01*
X81280000Y-122555000D02*
X78740000Y-125095000D01*
X81280000Y-115858000D02*
X81280000Y-122555000D01*
X55880000Y-142736370D02*
X56515000Y-143371370D01*
X55880000Y-141605000D02*
X55880000Y-142736370D01*
X74433630Y-143371370D02*
X76200000Y-141605000D01*
X56515000Y-143371370D02*
X74433630Y-143371370D01*
X107950000Y-117475000D02*
X107950000Y-106680000D01*
X107950000Y-117475000D02*
X107950000Y-127635000D01*
X107950000Y-127635000D02*
X107950000Y-137795000D01*
X55880000Y-125095000D02*
X59055000Y-121920000D01*
X59055000Y-121920000D02*
X77470000Y-121920000D01*
X78740000Y-123190000D02*
X77470000Y-121920000D01*
X78740000Y-125095000D02*
X78740000Y-123190000D01*
X52705000Y-128270000D02*
X55880000Y-125095000D01*
X52705000Y-138430000D02*
X52705000Y-128270000D01*
X55880000Y-141605000D02*
X52705000Y-138430000D01*
X103285000Y-106680000D02*
X101236000Y-108729000D01*
X107950000Y-106680000D02*
X103285000Y-106680000D01*
X63500000Y-125095000D02*
X66040000Y-125095000D01*
X55880000Y-132715000D02*
X63500000Y-125095000D01*
X73025000Y-132715000D02*
X76200000Y-132715000D01*
X66040000Y-139700000D02*
X73025000Y-132715000D01*
X76200000Y-132715000D02*
X76200000Y-135890000D01*
X76200000Y-135890000D02*
X79375000Y-139065000D01*
X116840000Y-106680000D02*
X116840000Y-116840000D01*
X116840000Y-126960000D02*
X116880000Y-127000000D01*
X116840000Y-116840000D02*
X116840000Y-126960000D01*
X116880000Y-137120000D02*
X116840000Y-137160000D01*
X116880000Y-127000000D02*
X116880000Y-137120000D01*
X116840000Y-137160000D02*
X113665000Y-140335000D01*
X97790000Y-140335000D02*
X96520000Y-139065000D01*
X113665000Y-140335000D02*
X97790000Y-140335000D01*
X101236000Y-113809000D02*
X92710000Y-122335000D01*
X92710000Y-139065000D02*
X96520000Y-139065000D01*
X92710000Y-122335000D02*
X92710000Y-139065000D01*
X79375000Y-139065000D02*
X92710000Y-139065000D01*
M02*
