M48
; DRILL file {KiCad (5.1.2-1)-1} date Sunday, August 04, 2019 at 08:00:31 PM
; FORMAT={-:-/ absolute / inch / decimal}
; #@! TF.CreationDate,2019-08-04T20:00:31-04:00
; #@! TF.GenerationSoftware,Kicad,Pcbnew,(5.1.2-1)-1
; #@! TF.FileFunction,Plated,1,2,PTH
FMAT,2
INCH
T1C0.0315
T2C0.0374
T3C0.0394
T4C0.0400
%
G90
G05
T1
X3.1Y-4.925
X2.6Y-4.225
X2.7Y-4.225
X2.225Y-4.225
X2.325Y-4.225
X2.6Y-4.55
X2.7Y-4.55
X2.225Y-4.55
X2.325Y-4.55
X3.0Y-5.575
X3.1Y-5.575
X3.0Y-4.925
X4.25Y-5.425
X4.35Y-5.425
X4.25Y-5.025
X4.35Y-5.025
X4.25Y-4.625
X4.35Y-4.625
X4.25Y-4.2
X4.35Y-4.2
X2.2Y-5.575
X2.3Y-5.575
X2.2Y-4.925
X2.3Y-4.925
T2
X3.025Y-4.2
X3.025Y-4.2984
X3.025Y-4.3969
X3.025Y-4.4953
X3.025Y-4.5937
T3
X4.6Y-4.6
X4.6984Y-4.6
X4.6Y-5.4
X4.6984Y-5.4
X4.6Y-4.2
X4.6984Y-4.2
X4.6016Y-5.0
X4.7Y-5.0
X2.2Y-5.225
X2.2984Y-5.225
X3.0Y-5.225
X3.0984Y-5.225
X2.6Y-5.5
X2.6984Y-5.5
X2.6Y-4.925
X2.6984Y-4.925
T4
X3.3857Y-4.1807
X3.3857Y-4.2807
X3.3857Y-4.3807
X3.3857Y-4.4807
X3.3857Y-4.5807
X3.3857Y-4.6807
X3.3857Y-4.7807
X3.3857Y-4.8807
X3.3857Y-4.9807
X3.3857Y-5.0807
X3.3857Y-5.1807
X3.3857Y-5.28
X3.9857Y-4.1807
X3.9857Y-4.2807
X3.9857Y-4.3807
X3.9857Y-4.4807
X3.9857Y-4.5807
X3.9857Y-4.6807
X3.9857Y-4.7807
X3.9857Y-4.8807
X3.9857Y-4.9807
X3.9857Y-5.0807
X3.9857Y-5.1807
X3.9857Y-5.2807
T0
M30
