G04 #@! TF.GenerationSoftware,KiCad,Pcbnew,(5.1.2-1)-1*
G04 #@! TF.CreationDate,2019-08-04T20:02:10-04:00*
G04 #@! TF.ProjectId,Pyxel-Paradise,50797865-6c2d-4506-9172-61646973652e,rev?*
G04 #@! TF.SameCoordinates,Original*
G04 #@! TF.FileFunction,Soldermask,Bot*
G04 #@! TF.FilePolarity,Negative*
%FSLAX46Y46*%
G04 Gerber Fmt 4.6, Leading zero omitted, Abs format (unit mm)*
G04 Created by KiCad (PCBNEW (5.1.2-1)-1) date 2019-08-04 20:02:10*
%MOMM*%
%LPD*%
G04 APERTURE LIST*
%ADD10C,0.100000*%
%ADD11C,2.100000*%
%ADD12O,2.350000X2.100000*%
%ADD13O,2.100000X2.400000*%
%ADD14O,2.000000X2.000000*%
%ADD15C,2.000000*%
%ADD16C,1.416000*%
%ADD17O,2.127200X2.127200*%
%ADD18R,2.127200X2.127200*%
G04 APERTURE END LIST*
D10*
G36*
X77731447Y-105631487D02*
G01*
X77761425Y-105635934D01*
X77790824Y-105643298D01*
X77819358Y-105653508D01*
X77846755Y-105666465D01*
X77872750Y-105682046D01*
X77897092Y-105700100D01*
X77919548Y-105720452D01*
X77939900Y-105742908D01*
X77957954Y-105767250D01*
X77973535Y-105793245D01*
X77986492Y-105820642D01*
X77996702Y-105849176D01*
X78004066Y-105878575D01*
X78008513Y-105908553D01*
X78010000Y-105938823D01*
X78010000Y-107421177D01*
X78008513Y-107451447D01*
X78004066Y-107481425D01*
X77996702Y-107510824D01*
X77986492Y-107539358D01*
X77973535Y-107566755D01*
X77957954Y-107592750D01*
X77939900Y-107617092D01*
X77919548Y-107639548D01*
X77897092Y-107659900D01*
X77872750Y-107677954D01*
X77846755Y-107693535D01*
X77819358Y-107706492D01*
X77790824Y-107716702D01*
X77761425Y-107724066D01*
X77731447Y-107728513D01*
X77701177Y-107730000D01*
X75968823Y-107730000D01*
X75938553Y-107728513D01*
X75908575Y-107724066D01*
X75879176Y-107716702D01*
X75850642Y-107706492D01*
X75823245Y-107693535D01*
X75797250Y-107677954D01*
X75772908Y-107659900D01*
X75750452Y-107639548D01*
X75730100Y-107617092D01*
X75712046Y-107592750D01*
X75696465Y-107566755D01*
X75683508Y-107539358D01*
X75673298Y-107510824D01*
X75665934Y-107481425D01*
X75661487Y-107451447D01*
X75660000Y-107421177D01*
X75660000Y-105938823D01*
X75661487Y-105908553D01*
X75665934Y-105878575D01*
X75673298Y-105849176D01*
X75683508Y-105820642D01*
X75696465Y-105793245D01*
X75712046Y-105767250D01*
X75730100Y-105742908D01*
X75750452Y-105720452D01*
X75772908Y-105700100D01*
X75797250Y-105682046D01*
X75823245Y-105666465D01*
X75850642Y-105653508D01*
X75879176Y-105643298D01*
X75908575Y-105635934D01*
X75938553Y-105631487D01*
X75968823Y-105630000D01*
X77701177Y-105630000D01*
X77731447Y-105631487D01*
X77731447Y-105631487D01*
G37*
D11*
X76835000Y-106680000D03*
D12*
X76835000Y-109180000D03*
X76835000Y-111680000D03*
X76835000Y-114180000D03*
X76835000Y-116680000D03*
D10*
G36*
X66811447Y-123896487D02*
G01*
X66841425Y-123900934D01*
X66870824Y-123908298D01*
X66899358Y-123918508D01*
X66926755Y-123931465D01*
X66952750Y-123947046D01*
X66977092Y-123965100D01*
X66999548Y-123985452D01*
X67019900Y-124007908D01*
X67037954Y-124032250D01*
X67053535Y-124058245D01*
X67066492Y-124085642D01*
X67076702Y-124114176D01*
X67084066Y-124143575D01*
X67088513Y-124173553D01*
X67090000Y-124203823D01*
X67090000Y-125986177D01*
X67088513Y-126016447D01*
X67084066Y-126046425D01*
X67076702Y-126075824D01*
X67066492Y-126104358D01*
X67053535Y-126131755D01*
X67037954Y-126157750D01*
X67019900Y-126182092D01*
X66999548Y-126204548D01*
X66977092Y-126224900D01*
X66952750Y-126242954D01*
X66926755Y-126258535D01*
X66899358Y-126271492D01*
X66870824Y-126281702D01*
X66841425Y-126289066D01*
X66811447Y-126293513D01*
X66781177Y-126295000D01*
X65298823Y-126295000D01*
X65268553Y-126293513D01*
X65238575Y-126289066D01*
X65209176Y-126281702D01*
X65180642Y-126271492D01*
X65153245Y-126258535D01*
X65127250Y-126242954D01*
X65102908Y-126224900D01*
X65080452Y-126204548D01*
X65060100Y-126182092D01*
X65042046Y-126157750D01*
X65026465Y-126131755D01*
X65013508Y-126104358D01*
X65003298Y-126075824D01*
X64995934Y-126046425D01*
X64991487Y-126016447D01*
X64990000Y-125986177D01*
X64990000Y-124203823D01*
X64991487Y-124173553D01*
X64995934Y-124143575D01*
X65003298Y-124114176D01*
X65013508Y-124085642D01*
X65026465Y-124058245D01*
X65042046Y-124032250D01*
X65060100Y-124007908D01*
X65080452Y-123985452D01*
X65102908Y-123965100D01*
X65127250Y-123947046D01*
X65153245Y-123931465D01*
X65180642Y-123918508D01*
X65209176Y-123908298D01*
X65238575Y-123900934D01*
X65268553Y-123896487D01*
X65298823Y-123895000D01*
X66781177Y-123895000D01*
X66811447Y-123896487D01*
X66811447Y-123896487D01*
G37*
D11*
X66040000Y-125095000D03*
D13*
X68540000Y-125095000D03*
X78700000Y-132715000D03*
D10*
G36*
X76971447Y-131516487D02*
G01*
X77001425Y-131520934D01*
X77030824Y-131528298D01*
X77059358Y-131538508D01*
X77086755Y-131551465D01*
X77112750Y-131567046D01*
X77137092Y-131585100D01*
X77159548Y-131605452D01*
X77179900Y-131627908D01*
X77197954Y-131652250D01*
X77213535Y-131678245D01*
X77226492Y-131705642D01*
X77236702Y-131734176D01*
X77244066Y-131763575D01*
X77248513Y-131793553D01*
X77250000Y-131823823D01*
X77250000Y-133606177D01*
X77248513Y-133636447D01*
X77244066Y-133666425D01*
X77236702Y-133695824D01*
X77226492Y-133724358D01*
X77213535Y-133751755D01*
X77197954Y-133777750D01*
X77179900Y-133802092D01*
X77159548Y-133824548D01*
X77137092Y-133844900D01*
X77112750Y-133862954D01*
X77086755Y-133878535D01*
X77059358Y-133891492D01*
X77030824Y-133901702D01*
X77001425Y-133909066D01*
X76971447Y-133913513D01*
X76941177Y-133915000D01*
X75458823Y-133915000D01*
X75428553Y-133913513D01*
X75398575Y-133909066D01*
X75369176Y-133901702D01*
X75340642Y-133891492D01*
X75313245Y-133878535D01*
X75287250Y-133862954D01*
X75262908Y-133844900D01*
X75240452Y-133824548D01*
X75220100Y-133802092D01*
X75202046Y-133777750D01*
X75186465Y-133751755D01*
X75173508Y-133724358D01*
X75163298Y-133695824D01*
X75155934Y-133666425D01*
X75151487Y-133636447D01*
X75150000Y-133606177D01*
X75150000Y-131823823D01*
X75151487Y-131793553D01*
X75155934Y-131763575D01*
X75163298Y-131734176D01*
X75173508Y-131705642D01*
X75186465Y-131678245D01*
X75202046Y-131652250D01*
X75220100Y-131627908D01*
X75240452Y-131605452D01*
X75262908Y-131585100D01*
X75287250Y-131567046D01*
X75313245Y-131551465D01*
X75340642Y-131538508D01*
X75369176Y-131528298D01*
X75398575Y-131520934D01*
X75428553Y-131516487D01*
X75458823Y-131515000D01*
X76941177Y-131515000D01*
X76971447Y-131516487D01*
X76971447Y-131516487D01*
G37*
D11*
X76200000Y-132715000D03*
D10*
G36*
X66811447Y-138501487D02*
G01*
X66841425Y-138505934D01*
X66870824Y-138513298D01*
X66899358Y-138523508D01*
X66926755Y-138536465D01*
X66952750Y-138552046D01*
X66977092Y-138570100D01*
X66999548Y-138590452D01*
X67019900Y-138612908D01*
X67037954Y-138637250D01*
X67053535Y-138663245D01*
X67066492Y-138690642D01*
X67076702Y-138719176D01*
X67084066Y-138748575D01*
X67088513Y-138778553D01*
X67090000Y-138808823D01*
X67090000Y-140591177D01*
X67088513Y-140621447D01*
X67084066Y-140651425D01*
X67076702Y-140680824D01*
X67066492Y-140709358D01*
X67053535Y-140736755D01*
X67037954Y-140762750D01*
X67019900Y-140787092D01*
X66999548Y-140809548D01*
X66977092Y-140829900D01*
X66952750Y-140847954D01*
X66926755Y-140863535D01*
X66899358Y-140876492D01*
X66870824Y-140886702D01*
X66841425Y-140894066D01*
X66811447Y-140898513D01*
X66781177Y-140900000D01*
X65298823Y-140900000D01*
X65268553Y-140898513D01*
X65238575Y-140894066D01*
X65209176Y-140886702D01*
X65180642Y-140876492D01*
X65153245Y-140863535D01*
X65127250Y-140847954D01*
X65102908Y-140829900D01*
X65080452Y-140809548D01*
X65060100Y-140787092D01*
X65042046Y-140762750D01*
X65026465Y-140736755D01*
X65013508Y-140709358D01*
X65003298Y-140680824D01*
X64995934Y-140651425D01*
X64991487Y-140621447D01*
X64990000Y-140591177D01*
X64990000Y-138808823D01*
X64991487Y-138778553D01*
X64995934Y-138748575D01*
X65003298Y-138719176D01*
X65013508Y-138690642D01*
X65026465Y-138663245D01*
X65042046Y-138637250D01*
X65060100Y-138612908D01*
X65080452Y-138590452D01*
X65102908Y-138570100D01*
X65127250Y-138552046D01*
X65153245Y-138536465D01*
X65180642Y-138523508D01*
X65209176Y-138513298D01*
X65238575Y-138505934D01*
X65268553Y-138501487D01*
X65298823Y-138500000D01*
X66781177Y-138500000D01*
X66811447Y-138501487D01*
X66811447Y-138501487D01*
G37*
D11*
X66040000Y-139700000D03*
D13*
X68540000Y-139700000D03*
X58380000Y-132715000D03*
D10*
G36*
X56651447Y-131516487D02*
G01*
X56681425Y-131520934D01*
X56710824Y-131528298D01*
X56739358Y-131538508D01*
X56766755Y-131551465D01*
X56792750Y-131567046D01*
X56817092Y-131585100D01*
X56839548Y-131605452D01*
X56859900Y-131627908D01*
X56877954Y-131652250D01*
X56893535Y-131678245D01*
X56906492Y-131705642D01*
X56916702Y-131734176D01*
X56924066Y-131763575D01*
X56928513Y-131793553D01*
X56930000Y-131823823D01*
X56930000Y-133606177D01*
X56928513Y-133636447D01*
X56924066Y-133666425D01*
X56916702Y-133695824D01*
X56906492Y-133724358D01*
X56893535Y-133751755D01*
X56877954Y-133777750D01*
X56859900Y-133802092D01*
X56839548Y-133824548D01*
X56817092Y-133844900D01*
X56792750Y-133862954D01*
X56766755Y-133878535D01*
X56739358Y-133891492D01*
X56710824Y-133901702D01*
X56681425Y-133909066D01*
X56651447Y-133913513D01*
X56621177Y-133915000D01*
X55138823Y-133915000D01*
X55108553Y-133913513D01*
X55078575Y-133909066D01*
X55049176Y-133901702D01*
X55020642Y-133891492D01*
X54993245Y-133878535D01*
X54967250Y-133862954D01*
X54942908Y-133844900D01*
X54920452Y-133824548D01*
X54900100Y-133802092D01*
X54882046Y-133777750D01*
X54866465Y-133751755D01*
X54853508Y-133724358D01*
X54843298Y-133695824D01*
X54835934Y-133666425D01*
X54831487Y-133636447D01*
X54830000Y-133606177D01*
X54830000Y-131823823D01*
X54831487Y-131793553D01*
X54835934Y-131763575D01*
X54843298Y-131734176D01*
X54853508Y-131705642D01*
X54866465Y-131678245D01*
X54882046Y-131652250D01*
X54900100Y-131627908D01*
X54920452Y-131605452D01*
X54942908Y-131585100D01*
X54967250Y-131567046D01*
X54993245Y-131551465D01*
X55020642Y-131538508D01*
X55049176Y-131528298D01*
X55078575Y-131520934D01*
X55108553Y-131516487D01*
X55138823Y-131515000D01*
X56621177Y-131515000D01*
X56651447Y-131516487D01*
X56651447Y-131516487D01*
G37*
D11*
X55880000Y-132715000D03*
D10*
G36*
X117611447Y-105481487D02*
G01*
X117641425Y-105485934D01*
X117670824Y-105493298D01*
X117699358Y-105503508D01*
X117726755Y-105516465D01*
X117752750Y-105532046D01*
X117777092Y-105550100D01*
X117799548Y-105570452D01*
X117819900Y-105592908D01*
X117837954Y-105617250D01*
X117853535Y-105643245D01*
X117866492Y-105670642D01*
X117876702Y-105699176D01*
X117884066Y-105728575D01*
X117888513Y-105758553D01*
X117890000Y-105788823D01*
X117890000Y-107571177D01*
X117888513Y-107601447D01*
X117884066Y-107631425D01*
X117876702Y-107660824D01*
X117866492Y-107689358D01*
X117853535Y-107716755D01*
X117837954Y-107742750D01*
X117819900Y-107767092D01*
X117799548Y-107789548D01*
X117777092Y-107809900D01*
X117752750Y-107827954D01*
X117726755Y-107843535D01*
X117699358Y-107856492D01*
X117670824Y-107866702D01*
X117641425Y-107874066D01*
X117611447Y-107878513D01*
X117581177Y-107880000D01*
X116098823Y-107880000D01*
X116068553Y-107878513D01*
X116038575Y-107874066D01*
X116009176Y-107866702D01*
X115980642Y-107856492D01*
X115953245Y-107843535D01*
X115927250Y-107827954D01*
X115902908Y-107809900D01*
X115880452Y-107789548D01*
X115860100Y-107767092D01*
X115842046Y-107742750D01*
X115826465Y-107716755D01*
X115813508Y-107689358D01*
X115803298Y-107660824D01*
X115795934Y-107631425D01*
X115791487Y-107601447D01*
X115790000Y-107571177D01*
X115790000Y-105788823D01*
X115791487Y-105758553D01*
X115795934Y-105728575D01*
X115803298Y-105699176D01*
X115813508Y-105670642D01*
X115826465Y-105643245D01*
X115842046Y-105617250D01*
X115860100Y-105592908D01*
X115880452Y-105570452D01*
X115902908Y-105550100D01*
X115927250Y-105532046D01*
X115953245Y-105516465D01*
X115980642Y-105503508D01*
X116009176Y-105493298D01*
X116038575Y-105485934D01*
X116068553Y-105481487D01*
X116098823Y-105480000D01*
X117581177Y-105480000D01*
X117611447Y-105481487D01*
X117611447Y-105481487D01*
G37*
D11*
X116840000Y-106680000D03*
D13*
X119340000Y-106680000D03*
X119340000Y-116840000D03*
D10*
G36*
X117611447Y-115641487D02*
G01*
X117641425Y-115645934D01*
X117670824Y-115653298D01*
X117699358Y-115663508D01*
X117726755Y-115676465D01*
X117752750Y-115692046D01*
X117777092Y-115710100D01*
X117799548Y-115730452D01*
X117819900Y-115752908D01*
X117837954Y-115777250D01*
X117853535Y-115803245D01*
X117866492Y-115830642D01*
X117876702Y-115859176D01*
X117884066Y-115888575D01*
X117888513Y-115918553D01*
X117890000Y-115948823D01*
X117890000Y-117731177D01*
X117888513Y-117761447D01*
X117884066Y-117791425D01*
X117876702Y-117820824D01*
X117866492Y-117849358D01*
X117853535Y-117876755D01*
X117837954Y-117902750D01*
X117819900Y-117927092D01*
X117799548Y-117949548D01*
X117777092Y-117969900D01*
X117752750Y-117987954D01*
X117726755Y-118003535D01*
X117699358Y-118016492D01*
X117670824Y-118026702D01*
X117641425Y-118034066D01*
X117611447Y-118038513D01*
X117581177Y-118040000D01*
X116098823Y-118040000D01*
X116068553Y-118038513D01*
X116038575Y-118034066D01*
X116009176Y-118026702D01*
X115980642Y-118016492D01*
X115953245Y-118003535D01*
X115927250Y-117987954D01*
X115902908Y-117969900D01*
X115880452Y-117949548D01*
X115860100Y-117927092D01*
X115842046Y-117902750D01*
X115826465Y-117876755D01*
X115813508Y-117849358D01*
X115803298Y-117820824D01*
X115795934Y-117791425D01*
X115791487Y-117761447D01*
X115790000Y-117731177D01*
X115790000Y-115948823D01*
X115791487Y-115918553D01*
X115795934Y-115888575D01*
X115803298Y-115859176D01*
X115813508Y-115830642D01*
X115826465Y-115803245D01*
X115842046Y-115777250D01*
X115860100Y-115752908D01*
X115880452Y-115730452D01*
X115902908Y-115710100D01*
X115927250Y-115692046D01*
X115953245Y-115676465D01*
X115980642Y-115663508D01*
X116009176Y-115653298D01*
X116038575Y-115645934D01*
X116068553Y-115641487D01*
X116098823Y-115640000D01*
X117581177Y-115640000D01*
X117611447Y-115641487D01*
X117611447Y-115641487D01*
G37*
D11*
X116840000Y-116840000D03*
D10*
G36*
X117651447Y-125801487D02*
G01*
X117681425Y-125805934D01*
X117710824Y-125813298D01*
X117739358Y-125823508D01*
X117766755Y-125836465D01*
X117792750Y-125852046D01*
X117817092Y-125870100D01*
X117839548Y-125890452D01*
X117859900Y-125912908D01*
X117877954Y-125937250D01*
X117893535Y-125963245D01*
X117906492Y-125990642D01*
X117916702Y-126019176D01*
X117924066Y-126048575D01*
X117928513Y-126078553D01*
X117930000Y-126108823D01*
X117930000Y-127891177D01*
X117928513Y-127921447D01*
X117924066Y-127951425D01*
X117916702Y-127980824D01*
X117906492Y-128009358D01*
X117893535Y-128036755D01*
X117877954Y-128062750D01*
X117859900Y-128087092D01*
X117839548Y-128109548D01*
X117817092Y-128129900D01*
X117792750Y-128147954D01*
X117766755Y-128163535D01*
X117739358Y-128176492D01*
X117710824Y-128186702D01*
X117681425Y-128194066D01*
X117651447Y-128198513D01*
X117621177Y-128200000D01*
X116138823Y-128200000D01*
X116108553Y-128198513D01*
X116078575Y-128194066D01*
X116049176Y-128186702D01*
X116020642Y-128176492D01*
X115993245Y-128163535D01*
X115967250Y-128147954D01*
X115942908Y-128129900D01*
X115920452Y-128109548D01*
X115900100Y-128087092D01*
X115882046Y-128062750D01*
X115866465Y-128036755D01*
X115853508Y-128009358D01*
X115843298Y-127980824D01*
X115835934Y-127951425D01*
X115831487Y-127921447D01*
X115830000Y-127891177D01*
X115830000Y-126108823D01*
X115831487Y-126078553D01*
X115835934Y-126048575D01*
X115843298Y-126019176D01*
X115853508Y-125990642D01*
X115866465Y-125963245D01*
X115882046Y-125937250D01*
X115900100Y-125912908D01*
X115920452Y-125890452D01*
X115942908Y-125870100D01*
X115967250Y-125852046D01*
X115993245Y-125836465D01*
X116020642Y-125823508D01*
X116049176Y-125813298D01*
X116078575Y-125805934D01*
X116108553Y-125801487D01*
X116138823Y-125800000D01*
X117621177Y-125800000D01*
X117651447Y-125801487D01*
X117651447Y-125801487D01*
G37*
D11*
X116880000Y-127000000D03*
D13*
X119380000Y-127000000D03*
X119340000Y-137160000D03*
D10*
G36*
X117611447Y-135961487D02*
G01*
X117641425Y-135965934D01*
X117670824Y-135973298D01*
X117699358Y-135983508D01*
X117726755Y-135996465D01*
X117752750Y-136012046D01*
X117777092Y-136030100D01*
X117799548Y-136050452D01*
X117819900Y-136072908D01*
X117837954Y-136097250D01*
X117853535Y-136123245D01*
X117866492Y-136150642D01*
X117876702Y-136179176D01*
X117884066Y-136208575D01*
X117888513Y-136238553D01*
X117890000Y-136268823D01*
X117890000Y-138051177D01*
X117888513Y-138081447D01*
X117884066Y-138111425D01*
X117876702Y-138140824D01*
X117866492Y-138169358D01*
X117853535Y-138196755D01*
X117837954Y-138222750D01*
X117819900Y-138247092D01*
X117799548Y-138269548D01*
X117777092Y-138289900D01*
X117752750Y-138307954D01*
X117726755Y-138323535D01*
X117699358Y-138336492D01*
X117670824Y-138346702D01*
X117641425Y-138354066D01*
X117611447Y-138358513D01*
X117581177Y-138360000D01*
X116098823Y-138360000D01*
X116068553Y-138358513D01*
X116038575Y-138354066D01*
X116009176Y-138346702D01*
X115980642Y-138336492D01*
X115953245Y-138323535D01*
X115927250Y-138307954D01*
X115902908Y-138289900D01*
X115880452Y-138269548D01*
X115860100Y-138247092D01*
X115842046Y-138222750D01*
X115826465Y-138196755D01*
X115813508Y-138169358D01*
X115803298Y-138140824D01*
X115795934Y-138111425D01*
X115791487Y-138081447D01*
X115790000Y-138051177D01*
X115790000Y-136268823D01*
X115791487Y-136238553D01*
X115795934Y-136208575D01*
X115803298Y-136179176D01*
X115813508Y-136150642D01*
X115826465Y-136123245D01*
X115842046Y-136097250D01*
X115860100Y-136072908D01*
X115880452Y-136050452D01*
X115902908Y-136030100D01*
X115927250Y-136012046D01*
X115953245Y-135996465D01*
X115980642Y-135983508D01*
X116009176Y-135973298D01*
X116038575Y-135965934D01*
X116068553Y-135961487D01*
X116098823Y-135960000D01*
X117581177Y-135960000D01*
X117611447Y-135961487D01*
X117611447Y-135961487D01*
G37*
D11*
X116840000Y-137160000D03*
D14*
X55880000Y-125095000D03*
D15*
X58420000Y-125095000D03*
X58420000Y-141605000D03*
D14*
X55880000Y-141605000D03*
D15*
X110490000Y-106680000D03*
D14*
X107950000Y-106680000D03*
X107950000Y-117475000D03*
D15*
X110490000Y-117475000D03*
X110490000Y-127635000D03*
D14*
X107950000Y-127635000D03*
X107950000Y-137795000D03*
D15*
X110490000Y-137795000D03*
X76200000Y-125095000D03*
D14*
X78740000Y-125095000D03*
X76200000Y-141605000D03*
D15*
X78740000Y-141605000D03*
X56515000Y-115570000D03*
D14*
X59055000Y-115570000D03*
X68580000Y-115570000D03*
D15*
X66040000Y-115570000D03*
X56515000Y-107315000D03*
D14*
X59055000Y-107315000D03*
X68580000Y-107315000D03*
D15*
X66040000Y-107315000D03*
D16*
X101236000Y-103649000D03*
D17*
X101236000Y-123969000D03*
X85996000Y-116349000D03*
X101236000Y-108729000D03*
X101236000Y-126509000D03*
X101236000Y-129049000D03*
X101236000Y-131589000D03*
X101236000Y-121429000D03*
X85996000Y-131589000D03*
X85996000Y-129049000D03*
X85996000Y-126509000D03*
X85996000Y-123969000D03*
X85996000Y-121429000D03*
X85996000Y-111269000D03*
X85996000Y-113809000D03*
X85996000Y-108729000D03*
X101236000Y-116349000D03*
X101236000Y-118889000D03*
X101236000Y-113809000D03*
X85996000Y-118889000D03*
X101236000Y-111269000D03*
X101236000Y-106189000D03*
D18*
X85996000Y-106189000D03*
D16*
X85996000Y-103649000D03*
D17*
X85996000Y-134112000D03*
X101236000Y-134129000D03*
M02*
